HIERARCHY
ROOT Hips
{
	OFFSET 0.000000 0.000000 0.000000 
	CHANNELS 6 Xposition Yposition Zposition Zrotation Yrotation Xrotation
	JOINT LeftUpLeg
	{
		OFFSET 1.363060 -1.794630 0.839290 
		CHANNELS 3 Zrotation Yrotation Xrotation
		JOINT LeftLeg
		{
			OFFSET 2.448110 -6.726130 0.000000 
			CHANNELS 3 Zrotation Yrotation Xrotation
			JOINT LeftFoot
			{
				OFFSET 2.562200 -7.039590 0.000000 
				CHANNELS 3 Zrotation Yrotation Xrotation
				JOINT LeftToeBase
				{
					OFFSET 0.157640 -0.433110 2.322550 
					CHANNELS 3 Zrotation Yrotation Xrotation
					End Site
					{
						OFFSET 0.000000 0.000000 0.000000 
					}
				}
			}
		}
	}
	JOINT RightUpLeg
	{
		OFFSET -1.305520 -1.794630 0.839290 
		CHANNELS 3 Zrotation Yrotation Xrotation
		JOINT RightLeg
		{
			OFFSET -2.542530 -6.985550 0.000000 
			CHANNELS 3 Zrotation Yrotation Xrotation
			JOINT RightFoot
			{
				OFFSET -2.568260 -7.056230 0.000000 
				CHANNELS 3 Zrotation Yrotation Xrotation
				JOINT RightToeBase
				{
					OFFSET -0.164730 -0.452590 2.363150 
					CHANNELS 3 Zrotation Yrotation Xrotation
					End Site
					{
						OFFSET 0.000000 0.000000 0.000000 
					}
				}
			}
		}
	}
	JOINT Spine
	{
		OFFSET 0.028270 2.035590 -0.193380 
		CHANNELS 3 Zrotation Yrotation Xrotation
		JOINT Spine1
		{
			OFFSET 0.056720 2.048850 -0.042750 
			CHANNELS 3 Zrotation Yrotation Xrotation
			JOINT Neck1
			{
				OFFSET -0.054170 1.746240 0.172020 
				CHANNELS 3 Zrotation Yrotation Xrotation
				JOINT Head
				{
					OFFSET 0.104070 1.761360 -0.123970 
					CHANNELS 3 Zrotation Yrotation Xrotation
					End Site
					{
						OFFSET 0.000000 0.000000 0.000000 
					}
				}
			}
			JOINT LeftArm
			{
				OFFSET 3.362410 1.200890 -0.311210 
				CHANNELS 3 Zrotation Yrotation Xrotation
				JOINT LeftForeArm
				{
					OFFSET 4.983000 -0.000000 -0.000000 
					CHANNELS 3 Zrotation Yrotation Xrotation
					JOINT LeftHand
					{
						OFFSET 3.483560 -0.000000 -0.000000 
						CHANNELS 3 Zrotation Yrotation Xrotation
						JOINT LeftHandIndex1
						{
							OFFSET 0.715260 -0.000000 -0.000000 
							CHANNELS 3 Zrotation Yrotation Xrotation
							End Site
							{
								OFFSET 0.000000 0.000000 0.000000 
							}
						}
					}
				}
			}
			JOINT RightArm
			{
				OFFSET -3.136600 1.374050 -0.404650 
				CHANNELS 3 Zrotation Yrotation Xrotation
				JOINT RightForeArm
				{
					OFFSET -5.241900 -0.000000 -0.000000 
					CHANNELS 3 Zrotation Yrotation Xrotation
					JOINT RightHand
					{
						OFFSET -3.444170 -0.000000 -0.000000 
						CHANNELS 3 Zrotation Yrotation Xrotation
						JOINT RightHandIndex1
						{
							OFFSET -0.622530 -0.000000 -0.000000 
							CHANNELS 3 Zrotation Yrotation Xrotation
							End Site
							{
								OFFSET 0.000000 0.000000 0.000000 
							}
						}
					}
				}
			}
		}
	}
}
MOTION
Frames: 6
Frame Time: 0.041667
1.937172 17.195933 39.014902 179.767364 -0.446339 -172.786191 -17.667798 -17.747476 -33.477729 8.957856 20.279763 58.707960 -2.764581 24.510763 6.665719 0.030300 -1.124200 -3.090600 33.517653 5.884748 -4.735817 -3.098010 -13.069919 40.197070 2.004757 -24.337366 -3.942548 -3.229500 -11.057600 32.474500 -0.498074 7.075320 -3.573331 -2.454688 3.709708 8.246313 7.212254 -10.597785 11.751357 -0.856500 -3.685600 24.023000 -72.658264 31.949509 57.991950 104.756498 -61.338349 -68.613391 1.330901 -0.679688 16.866869 -7.125000 0.000000 0.000000 91.596285 -3.557999 47.422755 -106.906715 57.284174 -64.319423 0.389900 -1.728121 8.601339 7.125000 0.000000 0.000000 
1.938154 17.304978 38.714617 179.420186 -0.702253 -172.392966 -17.708858 -18.456440 -33.443916 7.451806 19.489979 54.237157 -2.406370 23.042495 7.676586 0.058200 -1.557100 -4.283200 33.179715 5.472213 -4.050788 -2.994422 -12.813708 39.582851 1.910033 -24.085525 -1.856257 -3.161100 -10.951300 32.115900 -0.443656 6.936208 -3.500072 -1.623191 3.522042 8.929270 7.305170 -10.416767 11.658036 -0.622400 -3.669800 24.444000 -73.571244 32.262608 56.984248 105.261975 -61.339551 -68.967074 1.345497 -0.675026 17.489512 -7.125000 0.000000 0.000000 90.261519 -2.732396 48.697700 -107.755791 57.008077 -65.381878 0.325260 -1.645802 8.062429 7.125000 0.000000 0.000000 
1.938372 17.421119 38.403526 179.091065 -0.782105 -171.652244 -17.675672 -18.860475 -33.697253 6.100647 18.664697 50.101469 -2.057464 21.552503 8.564885 0.059400 -1.572700 -4.326000 32.848477 5.280011 -3.578668 -2.864493 -12.580637 38.912984 1.852577 -24.119239 -0.158761 -3.059600 -10.790900 31.577900 -0.365505 7.094149 -3.166915 -0.229218 3.307812 11.313127 7.437346 -10.216233 11.487621 -0.343300 -3.596500 24.668800 -74.876347 30.812139 56.005997 105.509647 -61.410375 -68.992342 1.347613 -0.641419 17.618151 -7.125000 0.000000 0.000000 88.653483 -0.402206 49.188428 -107.814780 57.056311 -65.764523 0.260717 -1.536323 7.838838 7.125000 0.000000 0.000000 
1.936953 17.540644 38.086431 178.957273 -0.855247 -171.306334 -17.707385 -18.948506 -33.511863 4.849255 17.706641 46.061107 -1.585903 19.654877 10.221785 0.075600 -1.773300 -4.879500 32.689195 4.880779 -2.996550 -2.770169 -12.360181 38.360007 1.782542 -24.278176 1.815374 -2.881900 -10.501400 30.616200 -0.418977 7.284417 -3.145708 -0.062260 3.364304 11.616326 7.625410 -10.783183 11.628266 -0.165600 -3.814300 24.905400 -74.391730 31.044393 56.253625 105.858745 -61.401792 -69.285247 1.355402 -0.630778 17.619447 -7.125000 0.000000 0.000000 88.253889 -0.465380 49.569501 -108.499000 56.894779 -66.481121 0.255983 -1.494510 7.823112 7.125000 0.000000 0.000000 
1.933679 17.631570 37.776758 178.805475 -0.935121 -170.966801 -17.693985 -19.129774 -33.314345 3.719254 16.714954 42.228899 -1.200547 18.025622 11.412359 0.102200 -2.061300 -5.675100 32.501661 4.471377 -2.476471 -2.717897 -12.191191 37.981493 1.705380 -24.413485 3.526766 -2.687500 -10.171100 29.532500 -0.439368 7.411773 -3.111895 0.263538 3.357613 12.029188 7.707352 -11.104331 11.648187 -0.100500 -3.921700 25.169600 -74.271371 31.246931 56.210109 106.347574 -61.366329 -69.679480 1.365346 -0.626458 17.681598 -7.125000 0.000000 0.000000 87.624665 -0.271407 50.067555 -109.150568 56.726237 -67.214924 0.230734 -1.435568 7.743192 7.125000 0.000000 0.000000 
1.928548 17.712017 37.466867 178.740646 -0.990233 -170.726494 -17.660225 -19.189384 -33.057966 2.768658 15.746851 38.798898 -0.849560 16.545990 12.535927 0.139400 -2.406500 -6.630600 32.387261 3.999479 -1.982393 -2.700936 -12.068540 37.759561 1.627675 -24.585066 5.079661 -2.462500 -9.769400 28.233000 -0.470956 7.522204 -3.121383 0.383545 3.390185 12.151425 7.753195 -11.460755 11.687433 -0.105800 -4.032800 25.393400 -73.936175 31.674277 56.302215 106.895508 -61.311948 -70.148860 1.375072 -0.628414 17.653108 -7.125000 0.000000 0.000000 87.188711 -0.423820 50.543756 -109.803969 56.550440 -67.902474 0.213390 -1.386136 7.709467 7.125000 0.000000 0.000000 
